<svg width="1686" height="243" viewBox="0 0 1686 243" fill="none" xmlns="http://www.w3.org/2000/svg">
<path d="M182.704 234C186.736 234 190.03 237.718 187.678 240.994C186.649 242.427 184.929 243 183.166 243H94.0443C93.555 243 93.0616 242.939 92.5877 242.818C86.4748 241.25 87.9184 234 94.2292 234H182.704Z" fill="black"/>
<path d="M271.272 234C275.351 234 278.539 237.808 276.073 241.058C275.041 242.419 273.363 243 271.655 243H214.363C212.655 243 210.976 242.419 209.944 241.058C207.479 237.808 210.667 234 214.745 234H271.272Z" fill="black"/>
<path d="M339.811 234C345.638 234 347.46 240.719 341.972 242.676C341.357 242.895 340.709 243 340.056 243H303.489C301.782 243 300.103 242.419 299.071 241.058C296.606 237.808 299.794 234 303.872 234H339.811Z" fill="black"/>
<path d="M505.642 234C509.721 234 512.908 237.809 510.443 241.058C509.41 242.419 507.732 243 506.024 243H457.531C456.899 243 456.272 242.902 455.674 242.696C450.119 240.784 451.893 234 457.768 234H505.642Z" fill="black"/>
<path d="M708.525 234C712.604 234 715.792 237.809 713.326 241.058C712.294 242.419 710.616 243 708.908 243H620.842C620.346 243 619.847 242.937 619.368 242.812C613.313 241.226 614.768 234 621.027 234H708.525Z" fill="black"/>
<path d="M874.777 234C880.815 234 882.464 240.966 876.694 242.747C876.144 242.917 875.568 243 874.992 243H819.874C819.295 243 818.717 242.916 818.164 242.745C812.407 240.957 814.062 234 820.09 234H874.777Z" fill="black"/>
<path d="M1047.76 234C1051.84 234 1055.03 237.809 1052.57 241.058C1051.53 242.419 1049.86 243 1048.15 243H990.856C989.148 243 987.47 242.419 986.437 241.058C983.972 237.808 987.16 234 991.239 234H1047.76Z" fill="black"/>
<path d="M1194.79 234C1198.86 234 1202.05 237.808 1199.59 241.058C1198.55 242.419 1196.88 243 1195.17 243H1138.13C1136.42 243 1134.74 242.419 1133.71 241.058C1131.25 237.808 1134.43 234 1138.51 234H1194.79Z" fill="black"/>
<path d="M1288.3 234C1294.13 234 1295.95 240.719 1290.46 242.676C1289.85 242.895 1289.2 243 1288.55 243H1251.98C1250.27 243 1248.59 242.419 1247.56 241.058C1245.09 237.809 1248.28 234 1252.36 234H1288.3Z" fill="black"/>
<path d="M1454.13 234C1458.21 234 1461.4 237.809 1458.93 241.058C1457.9 242.419 1456.22 243 1454.51 243H1406.02C1405.39 243 1404.76 242.902 1404.16 242.696C1398.61 240.784 1400.38 234 1406.26 234H1454.13Z" fill="black"/>
<path d="M1633.86 234C1639.68 234 1641.5 240.716 1636.02 242.675C1635.41 242.896 1634.76 243 1634.11 243H1487.23C1485.52 243 1483.85 242.419 1482.81 241.058C1480.35 237.808 1483.54 234 1487.61 234H1633.86Z" fill="black"/>
<path d="M190.188 225.5C190.188 227.985 188.173 230 185.688 230H62.9407C62.0385 230 61.1652 229.768 60.3943 229.299C56.3115 226.817 58.2065 221 62.9847 221H185.688C188.173 221 190.188 223.015 190.188 225.5Z" fill="black"/>
<path d="M279.065 225.5C279.065 227.985 277.051 230 274.565 230H211.452C208.967 230 206.952 227.985 206.952 225.5C206.952 223.015 208.967 221 211.452 221H274.565C277.051 221 279.065 223.015 279.065 225.5Z" fill="black"/>
<path d="M367.719 221C369.875 221 370.991 223.517 369.462 225.037C366.083 228.396 361.404 230 356.64 230H300.579C298.094 230 296.079 227.985 296.079 225.5C296.079 223.015 298.094 221 300.579 221H367.719Z" fill="black"/>
<path d="M513.436 225.5C513.436 227.985 511.421 230 508.936 230H442.263C436.08 230 429.977 228.004 425.579 223.657C424.578 222.668 425.295 221 426.703 221H508.936C511.421 221 513.436 223.015 513.436 225.5Z" fill="black"/>
<path d="M716.319 225.5C716.319 227.985 714.305 230 711.819 230H590.098C589.197 230 588.325 229.767 587.555 229.299C583.481 226.819 585.37 221 590.14 221H711.819C714.305 221 716.319 223.015 716.319 225.5Z" fill="black"/>
<path d="M900.777 221C905.302 221 907.339 226.4 903.693 229.081C902.857 229.696 901.864 230 900.825 230H794.186C793.144 230 792.149 229.694 791.31 229.075C787.678 226.39 789.718 221 794.235 221H900.777Z" fill="black"/>
<path d="M1055.56 225.5C1055.56 227.985 1053.54 230 1051.06 230H987.944C985.459 230 983.444 227.985 983.444 225.5C983.444 223.015 985.459 221 987.944 221H1051.06C1053.54 221 1055.56 223.015 1055.56 225.5Z" fill="black"/>
<path d="M1202.58 225.5C1202.58 227.985 1200.56 230 1198.08 230H1135.22C1132.73 230 1130.72 227.985 1130.72 225.5C1130.72 223.015 1132.73 221 1135.22 221H1198.08C1200.56 221 1202.58 223.015 1202.58 225.5Z" fill="black"/>
<path d="M1316.22 221C1318.37 221 1319.48 223.522 1317.95 225.037C1314.57 228.396 1309.89 230 1305.13 230H1249.07C1246.58 230 1244.57 227.985 1244.57 225.5C1244.57 223.015 1246.58 221 1249.07 221H1316.22Z" fill="black"/>
<path d="M1461.92 225.5C1461.92 227.985 1459.91 230 1457.42 230H1390.75C1384.57 230 1378.47 228.005 1374.07 223.657C1373.07 222.67 1373.78 221 1375.19 221H1457.42C1459.91 221 1461.92 223.015 1461.92 225.5Z" fill="black"/>
<path d="M1661.82 221C1663.96 221 1665.06 223.528 1663.53 225.037C1660.14 228.395 1655.45 230 1650.67 230H1484.32C1481.84 230 1479.82 227.985 1479.82 225.5C1479.82 223.015 1481.84 221 1484.32 221H1661.82Z" fill="black"/>
<path d="M190.188 212.5C190.188 214.985 188.173 217 185.688 217H52.311C46.6885 217 41.1979 215.028 37.1992 211.075C36.0451 209.934 36.8675 208 38.4902 208H185.688C188.173 208 190.188 210.015 190.188 212.5Z" fill="black"/>
<path d="M279.065 212.5C279.065 214.985 277.051 217 274.565 217H211.452C208.967 217 206.952 214.985 206.952 212.5C206.952 210.015 208.967 208 211.452 208H274.565C277.051 208 279.065 210.015 279.065 212.5Z" fill="black"/>
<path d="M374.15 208C377.909 208 380.242 211.996 378.04 215.042C377.148 216.276 375.684 217 374.161 217H300.579C298.094 217 296.079 214.985 296.079 212.5C296.079 210.015 298.094 208 300.579 208H374.15Z" fill="black"/>
<path d="M513.436 212.5C513.436 214.985 511.421 217 508.936 217H421.797C420.332 217 418.918 216.326 418.018 215.17C415.664 212.145 417.973 208 421.807 208H508.936C511.421 208 513.436 210.015 513.436 212.5Z" fill="black"/>
<path d="M716.319 212.5C716.319 214.985 714.305 217 711.819 217H580.668C574.22 217 567.916 214.761 563.331 210.229C562.497 209.404 563.088 208 564.261 208H711.819C714.305 208 716.319 210.015 716.319 212.5Z" fill="black"/>
<path d="M915.312 208C919.33 208 921.554 212.519 918.821 215.465C917.925 216.431 916.627 217 915.31 217H779.773C778.452 217 777.151 216.428 776.255 215.457C773.534 212.509 775.76 208 779.772 208H915.312Z" fill="black"/>
<path d="M1055.56 212.5C1055.56 214.985 1053.54 217 1051.06 217H987.944C985.459 217 983.444 214.985 983.444 212.5C983.444 210.015 985.459 208 987.944 208H1051.06C1053.54 208 1055.56 210.015 1055.56 212.5Z" fill="black"/>
<path d="M1202.58 212.5C1202.58 214.985 1200.56 217 1198.08 217H1135.22C1132.73 217 1130.72 214.985 1130.72 212.5C1130.72 210.015 1132.73 208 1135.22 208H1198.08C1200.56 208 1202.58 210.015 1202.58 212.5Z" fill="black"/>
<path d="M1322.83 208C1326.64 208 1328.97 212.046 1326.69 215.086C1325.79 216.284 1324.33 217 1322.83 217H1249.07C1246.58 217 1244.57 214.985 1244.57 212.5C1244.57 210.015 1246.58 208 1249.07 208H1322.83Z" fill="black"/>
<path d="M1461.92 212.5C1461.92 214.985 1459.91 217 1457.42 217H1370.15C1368.71 217 1367.3 216.331 1366.4 215.208C1363.97 212.191 1366.28 208 1370.15 208H1457.42C1459.91 208 1461.92 210.015 1461.92 212.5Z" fill="black"/>
<path d="M1668.56 208C1672.4 208 1674.73 212.083 1672.39 215.117C1671.49 216.292 1670.04 217 1668.56 217H1484.32C1481.84 217 1479.82 214.985 1479.82 212.5C1479.82 210.015 1481.84 208 1484.32 208H1668.56Z" fill="black"/>
<path d="M190.188 199.5C190.188 201.985 188.173 204 185.688 204H32.6609C31.2939 204 29.9735 203.398 29.0861 202.358C26.551 199.388 28.7612 195 32.6662 195H185.688C188.173 195 190.188 197.015 190.188 199.5Z" fill="black"/>
<path d="M279.065 199.5C279.065 201.985 277.051 204 274.565 204H211.452C208.967 204 206.952 201.985 206.952 199.5C206.952 197.015 208.967 195 211.452 195H274.565C277.051 195 279.065 197.015 279.065 199.5Z" fill="black"/>
<path d="M381.546 195C384.827 195 387.16 198.191 385.877 201.211C385.146 202.932 383.428 204 381.558 204H300.579C298.094 204 296.079 201.985 296.079 199.5C296.079 197.015 298.094 195 300.579 195H381.546Z" fill="black"/>
<path d="M513.436 199.5C513.436 201.985 511.421 204 508.936 204H413.663C411.871 204 410.211 203.012 409.432 201.398C407.966 198.359 410.299 195 413.674 195H508.936C511.421 195 513.436 197.015 513.436 199.5Z" fill="black"/>
<path d="M716.319 199.5C716.319 201.985 714.305 204 711.819 204H559.525C558.171 204 556.861 203.409 555.974 202.387C553.4 199.424 555.604 195 559.529 195H711.819C714.305 195 716.319 197.015 716.319 199.5Z" fill="black"/>
<path d="M925.527 195C929.161 195 931.474 198.819 929.497 201.867C928.631 203.201 927.12 204 925.53 204H769.602C768.009 204 766.495 203.198 765.631 201.859C763.662 198.811 765.976 195 769.604 195H925.527Z" fill="black"/>
<path d="M1055.56 199.5C1055.56 201.985 1053.54 204 1051.06 204H987.944C985.459 204 983.444 201.985 983.444 199.5C983.444 197.015 985.459 195 987.944 195H1051.06C1053.54 195 1055.56 197.015 1055.56 199.5Z" fill="black"/>
<path d="M1202.58 199.5C1202.58 201.985 1200.56 204 1198.08 204H1135.22C1132.73 204 1130.72 201.985 1130.72 199.5C1130.72 197.015 1132.73 195 1135.22 195H1198.08C1200.56 195 1202.58 197.015 1202.58 199.5Z" fill="black"/>
<path d="M1330.46 195C1333.76 195 1336.11 198.198 1334.81 201.226C1334.07 202.944 1332.35 204 1330.48 204H1249.07C1246.58 204 1244.57 201.985 1244.57 199.5C1244.57 197.015 1246.58 195 1249.07 195H1330.46Z" fill="black"/>
<path d="M1461.92 199.5C1461.92 201.985 1459.91 204 1457.42 204H1361.75C1359.96 204 1358.3 203.025 1357.51 201.425C1356.01 198.378 1358.36 195 1361.76 195H1457.42C1459.91 195 1461.92 197.015 1461.92 199.5Z" fill="black"/>
<path d="M1676.36 195C1679.67 195 1682.03 198.206 1680.71 201.239C1679.97 202.954 1678.24 204 1676.37 204H1484.32C1481.84 204 1479.82 201.985 1479.82 199.5C1479.82 197.015 1481.84 195 1484.32 195H1676.36Z" fill="black"/>
<path d="M182.306 182C183.911 182 185.496 182.504 186.551 183.714C189.355 186.928 186.117 191 181.852 191H22.9366C21.3639 191 19.8801 190.211 19.0256 188.891C17.0618 185.857 19.327 182 22.9409 182H182.306Z" fill="black"/>
<path d="M279.065 186.5C279.065 188.985 277.051 191 274.565 191H211.452C208.967 191 206.952 188.985 206.952 186.5C206.952 184.015 208.967 182 211.452 182H274.565C277.051 182 279.065 184.015 279.065 186.5Z" fill="black"/>
<path d="M385.55 182C388.43 182 390.671 184.552 390.113 187.377C389.688 189.535 387.76 191 385.561 191H297.061C296.519 191 296.079 190.561 296.079 190.019C296.079 184.14 302.903 182 308.782 182H385.55Z" fill="black"/>
<path d="M505.863 182C507.49 182 509.092 182.474 510.167 183.695C513.009 186.926 509.601 191 505.297 191H408.908C406.801 191 404.93 189.646 404.41 187.604C403.674 184.715 405.938 182 408.919 182H505.863Z" fill="black"/>
<path d="M709.244 182C710.931 182 712.569 182.451 713.645 183.751C716.353 187.02 712.781 191 708.536 191H549.621C548.062 191 546.588 190.224 545.73 188.923C543.73 185.891 545.993 182 549.625 182H709.244Z" fill="black"/>
<path d="M932.362 182C935.608 182 937.915 185.157 936.688 188.162C935.976 189.907 934.255 191 932.37 191H762.795C760.908 191 759.185 189.904 758.475 188.156C757.255 185.152 759.561 182 762.803 182H932.362Z" fill="black"/>
<path d="M1055.56 186.5C1055.56 188.985 1053.54 191 1051.06 191H987.944C985.459 191 983.444 188.985 983.444 186.5C983.444 184.015 985.459 182 987.944 182H1051.06C1053.54 182 1055.56 184.015 1055.56 186.5Z" fill="black"/>
<path d="M1202.58 186.5C1202.58 188.985 1200.56 191 1198.08 191H1135.22C1132.73 191 1130.72 188.985 1130.72 186.5C1130.72 184.015 1132.73 182 1135.22 182H1198.08C1200.56 182 1202.58 184.015 1202.58 186.5Z" fill="black"/>
<path d="M1334.35 182C1337.2 182 1339.44 184.517 1338.94 187.321C1338.55 189.522 1336.61 191 1334.37 191H1245.55C1245.01 191 1244.57 190.561 1244.57 190.019C1244.57 184.13 1251.41 182 1257.3 182H1334.35Z" fill="black"/>
<path d="M1454.84 182C1456.52 182 1458.15 182.446 1459.23 183.738C1461.96 187.005 1458.38 191 1454.12 191H1357.02C1354.88 191 1353 189.639 1352.5 187.565C1351.8 184.687 1354.07 182 1357.03 182H1454.84Z" fill="black"/>
<path d="M1680.2 182C1683.03 182 1685.27 184.501 1684.8 187.294C1684.43 189.516 1682.47 191 1680.22 191H1487.63C1483.37 191 1479.79 187.005 1482.52 183.737C1483.59 182.446 1485.23 182 1486.91 182H1680.2Z" fill="black"/>
<path d="M95.1888 169C95.6932 169 96.1961 169.17 96.6077 169.461C98.9223 171.099 97.4431 178 94.6076 178H15.6638C13.885 178 12.2483 176.999 11.4848 175.393C10.0502 172.374 12.3241 169 15.6664 169H95.1888Z" fill="black"/>
<path d="M279.065 173.5C279.065 175.985 277.051 178 274.565 178H211.452C208.967 178 206.952 175.985 206.952 173.5C206.952 171.015 208.967 169 211.452 169H274.565C277.051 169 279.065 171.015 279.065 173.5Z" fill="black"/>
<path d="M391.553 172.202C391.553 175.47 388.818 178 385.55 178H317.069C316.208 178 315.78 176.561 316.393 175.955C319.464 172.919 322.922 169 327.241 169H388.351C390.119 169 391.553 170.434 391.553 172.202Z" fill="black"/>
<path d="M472.5 169C473.254 169 473.824 169.678 473.824 170.433C473.824 172.608 474.67 174.533 476.363 176.206C476.88 176.717 476.512 178 475.786 178H406.8C404.403 178 402.372 176.254 402.198 173.864C402.004 171.217 404.156 169 406.81 169H472.5Z" fill="black"/>
<path d="M621.398 169C621.785 169 622.171 169.128 622.488 169.349C624.367 170.655 622.885 178 620.596 178H542.201C540.436 178 538.809 177.014 538.039 175.426C536.573 172.404 538.848 169 542.207 169H621.398Z" fill="black"/>
<path d="M936.356 169C939.255 169 941.486 171.608 940.887 174.444C940.439 176.568 938.538 178 936.368 178H758.816C756.645 178 754.743 176.566 754.296 174.441C753.7 171.605 755.93 169 758.828 169H824.191C826.749 169 829.047 170.372 830.965 172.064C835.451 176.021 840.91 178 847.343 178C853.945 178 859.531 176.021 864.102 172.064C866.053 170.375 868.376 169 870.958 169H936.356Z" fill="black"/>
<path d="M1055.56 173.5C1055.56 175.985 1053.54 178 1051.06 178H987.944C985.459 178 983.444 175.985 983.444 173.5C983.444 171.015 985.459 169 987.944 169H1051.06C1053.54 169 1055.56 171.015 1055.56 173.5Z" fill="black"/>
<path d="M1202.58 173.5C1202.58 175.985 1200.56 178 1198.08 178H1135.22C1132.73 178 1130.72 175.985 1130.72 173.5C1130.72 171.015 1132.73 169 1135.22 169H1198.08C1200.56 169 1202.58 171.015 1202.58 173.5Z" fill="black"/>
<path d="M1340.04 174.218C1340.04 176.335 1338.29 178 1336.17 178H1265.56C1264.7 178 1264.27 176.58 1264.88 175.975C1267.99 172.886 1271.23 169 1275.61 169H1334.82C1337.71 169 1340.04 171.336 1340.04 174.218Z" fill="black"/>
<path d="M1422.31 169.428C1422.31 171.613 1423.16 174.546 1424.85 176.227C1425.37 176.738 1425 178 1424.28 178H1359.47C1354.59 178 1350.45 174.305 1350.45 169.428C1350.45 169.191 1350.65 169 1350.88 169H1421.9C1422.13 169 1422.31 169.195 1422.31 169.428Z" fill="black"/>
<path d="M1685.75 175.218C1685.75 176.769 1684.48 178 1682.92 178H1611.15C1609.77 178 1608.97 175.57 1609.96 174.596C1612.61 171.962 1615.74 169 1619.48 169H1679.53C1682.97 169 1685.75 171.784 1685.75 175.218Z" fill="black"/>
<path d="M74.1248 156C79.5967 156 84.6007 158.777 88.4922 162.624C89.3576 163.479 88.7683 165 87.5514 165H10.4562C8.47623 165 6.70226 163.767 6.08456 161.886C5.11952 158.947 7.36713 156 10.4605 156H74.1248Z" fill="black"/>
<path d="M279.065 160.5C279.065 162.985 277.051 165 274.565 165H211.452C208.967 165 206.952 162.985 206.952 160.5C206.952 158.015 208.967 156 211.452 156H274.565C277.051 156 279.065 158.015 279.065 160.5Z" fill="black"/>
<path d="M391.553 160.5C391.553 162.985 389.538 165 387.053 165H323.939C321.454 165 319.439 162.985 319.439 160.5C319.439 158.015 321.454 156 323.939 156H387.053C389.538 156 391.553 158.015 391.553 160.5Z" fill="black"/>
<path d="M480.503 156C482.306 156 483.231 158.121 481.949 159.389C481.77 159.537 481.59 159.688 481.41 159.841C479.748 161.258 477.915 162.875 476.363 164.409C475.999 164.769 475.519 165 475.006 165H406.878C404.205 165 402.045 162.756 402.269 160.092C402.468 157.722 404.49 156 406.868 156H480.503Z" fill="black"/>
<path d="M600.076 156C605.627 156 610.675 158.875 614.623 162.777C615.432 163.577 614.88 165 613.742 165H536.871C534.904 165 533.139 163.783 532.51 161.919C531.517 158.973 533.767 156 536.876 156H600.076Z" fill="black"/>
<path d="M820.611 156C822.641 156 824.278 157.6 824.618 159.602C825.066 162.239 823.214 165 820.539 165H757.119C754.697 165 752.662 163.217 752.53 160.799C752.387 158.187 754.513 156 757.129 156H820.611Z" fill="black"/>
<path d="M938.063 156C940.68 156 942.806 158.187 942.662 160.8C942.529 163.218 940.494 165 938.073 165H874.641C871.964 165 870.117 162.224 870.571 159.585C870.915 157.591 872.546 156 874.569 156H938.063Z" fill="black"/>
<path d="M1055.56 160.5C1055.56 162.985 1053.54 165 1051.06 165H987.944C985.459 165 983.444 162.985 983.444 160.5C983.444 158.015 985.459 156 987.944 156H1051.06C1053.54 156 1055.56 158.015 1055.56 160.5Z" fill="black"/>
<path d="M1202.58 160.5C1202.58 162.985 1200.56 165 1198.08 165H1135.22C1132.73 165 1130.72 162.985 1130.72 160.5C1130.72 158.015 1132.73 156 1135.22 156H1198.08C1200.56 156 1202.58 158.015 1202.58 160.5Z" fill="black"/>
<path d="M1340.04 160.5C1340.04 162.985 1338.03 165 1335.54 165H1272.43C1269.94 165 1267.93 162.985 1267.93 160.5C1267.93 158.015 1269.94 156 1272.43 156H1335.54C1338.03 156 1340.04 158.015 1340.04 160.5Z" fill="black"/>
<path d="M1430.44 156.389C1430.26 156.537 1430.08 156.688 1429.9 156.841C1428.24 158.258 1426.4 161.835 1424.85 163.376C1423.93 164.292 1422.76 165 1421.46 165H1355.54C1352.83 165 1350.66 162.718 1350.94 160.025C1351.19 157.696 1353.19 156 1355.53 156H1430.28C1430.48 156 1430.58 156.246 1430.44 156.389Z" fill="black"/>
<path d="M1685.75 160.5C1685.75 162.985 1683.74 165 1681.25 165H1615.77C1614.24 165 1612.97 163.731 1612.53 162.259C1611.77 159.672 1613.5 156 1616.2 156H1681.25C1683.74 156 1685.75 158.015 1685.75 160.5Z" fill="black"/>
<path d="M73.1456 143C74.8533 143 76.3658 144.07 77.0344 145.642C78.2677 148.541 76.2649 152 73.1145 152H7.0207C4.84859 152 2.95648 150.522 2.52657 148.393C1.95852 145.58 4.15496 143 7.02501 143H73.1456Z" fill="black"/>
<path d="M279.065 147.5C279.065 149.985 277.051 152 274.565 152H211.452C208.967 152 206.952 149.985 206.952 147.5C206.952 145.015 208.967 143 211.452 143H274.565C277.051 143 279.065 145.015 279.065 147.5Z" fill="black"/>
<path d="M391.553 147.5C391.553 149.985 389.538 152 387.053 152H323.939C321.454 152 319.439 149.985 319.439 147.5C319.439 145.015 321.454 143 323.939 143H387.053C389.538 143 391.553 145.015 391.553 147.5Z" fill="black"/>
<path d="M486.288 143C490.091 143 492.372 147.148 490.063 150.17C489.172 151.335 487.773 152 486.307 152H409.137C406.135 152 403.865 149.251 404.64 146.351C405.179 144.332 407.038 143 409.127 143H486.288Z" fill="black"/>
<path d="M599.388 143C601.11 143 602.637 144.089 603.301 145.679C604.511 148.578 602.496 152 599.354 152H533.329C531.169 152 529.284 150.538 528.84 148.424C528.248 145.602 530.448 143 533.332 143H599.388Z" fill="black"/>
<path d="M824.235 147.5C824.235 149.985 822.221 152 819.735 152H756.876C754.391 152 752.376 149.985 752.376 147.5C752.376 145.015 754.391 143 756.876 143H819.735C822.221 143 824.235 145.015 824.235 147.5Z" fill="black"/>
<path d="M942.817 147.5C942.817 149.985 940.803 152 938.317 152H875.457C872.972 152 870.957 149.985 870.957 147.5C870.957 145.015 872.972 143 875.457 143H938.317C940.803 143 942.817 145.015 942.817 147.5Z" fill="black"/>
<path d="M1055.56 147.5C1055.56 149.985 1053.54 152 1051.06 152H987.944C985.459 152 983.444 149.985 983.444 147.5C983.444 145.015 985.459 143 987.944 143H1051.06C1053.54 143 1055.56 145.015 1055.56 147.5Z" fill="black"/>
<path d="M1202.58 147.5C1202.58 149.985 1200.56 152 1198.08 152H1135.22C1132.73 152 1130.72 149.985 1130.72 147.5C1130.72 145.015 1132.73 143 1135.22 143H1198.08C1200.56 143 1202.58 145.015 1202.58 147.5Z" fill="black"/>
<path d="M1340.04 147.5C1340.04 149.985 1338.03 152 1335.54 152H1272.43C1269.94 152 1267.93 149.985 1267.93 147.5C1267.93 145.015 1269.94 143 1272.43 143H1335.54C1338.03 143 1340.04 145.015 1340.04 147.5Z" fill="black"/>
<path d="M1432.46 143C1436.4 143 1438.65 147.373 1436.08 150.356C1435.18 151.398 1433.85 152 1432.47 152H1357.99C1354.98 152 1352.71 149.231 1353.51 146.327C1354.06 144.328 1355.91 143 1357.98 143H1432.46Z" fill="black"/>
<path d="M1685.75 147.5C1685.75 149.985 1683.74 152 1681.25 152H1555.75C1545.81 152 1547.32 143 1557.26 143H1681.25C1683.74 143 1685.75 145.015 1685.75 147.5Z" fill="black"/>
<path d="M69.1722 130C71.2706 130 73.0256 131.57 73.4133 133.632C73.9243 136.351 71.927 139 69.1603 139H5.12308C2.77128 139 0.781986 137.271 0.567437 134.929C0.323663 132.268 2.45463 130 5.12679 130H69.1722Z" fill="black"/>
<path d="M279.065 134.5C279.065 136.985 277.051 139 274.565 139H211.452C208.967 139 206.952 136.985 206.952 134.5C206.952 132.015 208.967 130 211.452 130H274.565C277.051 130 279.065 132.015 279.065 134.5Z" fill="black"/>
<path d="M391.553 134.5C391.553 136.985 389.538 139 387.053 139H323.939C321.454 139 319.439 136.985 319.439 134.5C319.439 132.015 321.454 130 323.939 130H387.053C389.538 130 391.553 132.015 391.553 134.5Z" fill="black"/>
<path d="M494.532 130C497.948 130 500.245 133.479 498.683 136.517C497.888 138.061 496.279 139 494.542 139H414.057C410.661 139 408.328 135.606 409.835 132.563C410.623 130.973 412.272 130 414.046 130H494.532Z" fill="black"/>
<path d="M595.422 130C597.515 130 599.27 131.543 599.668 133.597C600.197 136.327 598.193 139 595.413 139H531.334C528.993 139 527.01 137.287 526.781 134.958C526.519 132.287 528.655 130 531.339 130H595.422Z" fill="black"/>
<path d="M824.235 134.5C824.235 136.985 822.221 139 819.735 139H756.876C754.391 139 752.376 136.985 752.376 134.5C752.376 132.015 754.391 130 756.876 130H819.735C822.221 130 824.235 132.015 824.235 134.5Z" fill="black"/>
<path d="M942.817 134.5C942.817 136.985 940.803 139 938.317 139H875.457C872.972 139 870.957 136.985 870.957 134.5C870.957 132.015 872.972 130 875.457 130H938.317C940.803 130 942.817 132.015 942.817 134.5Z" fill="black"/>
<path d="M1055.56 134.5C1055.56 136.985 1053.54 139 1051.06 139H987.944C985.459 139 983.444 136.985 983.444 134.5C983.444 132.015 985.459 130 987.944 130H1051.06C1053.54 130 1055.56 132.015 1055.56 134.5Z" fill="black"/>
<path d="M1202.58 134.5C1202.58 136.985 1200.56 139 1198.08 139H1135.22C1132.73 139 1130.72 136.985 1130.72 134.5C1130.72 132.015 1132.73 130 1135.22 130H1198.08C1200.56 130 1202.58 132.015 1202.58 134.5Z" fill="black"/>
<path d="M1340.04 134.5C1340.04 136.985 1338.03 139 1335.54 139H1272.43C1269.94 139 1267.93 136.985 1267.93 134.5C1267.93 132.015 1269.94 130 1272.43 130H1335.54C1338.03 130 1340.04 132.015 1340.04 134.5Z" fill="black"/>
<path d="M1441.83 130C1445.37 130 1447.68 133.668 1445.89 136.717C1445.05 138.144 1443.49 139 1441.84 139H1362.89C1359.52 139 1357.2 135.627 1358.66 132.591C1359.44 130.984 1361.09 130 1362.88 130H1441.83Z" fill="black"/>
<path d="M1685.75 134.5C1685.75 136.985 1683.74 139 1681.25 139H1514.88C1513.84 139 1512.85 138.707 1512.01 138.102C1508.29 135.425 1510.37 130 1514.95 130H1681.25C1683.74 130 1685.75 132.015 1685.75 134.5Z" fill="black"/>
<path d="M67.249 117C70.1255 117 72.3682 119.47 72.3682 122.347C72.3682 124.33 70.804 126 68.8211 126H3.70158C1.66875 126 0 124.38 0 122.347C5.02231e-06 119.361 2.46487 117 5.45052 117H67.249Z" fill="black"/>
<path d="M279.065 121.5C279.065 123.985 277.051 126 274.565 126H211.452C208.967 126 206.952 123.985 206.952 121.5C206.952 119.015 208.967 117 211.452 117H274.565C277.051 117 279.065 119.015 279.065 121.5Z" fill="black"/>
<path d="M391.553 121.5C391.553 123.985 389.538 126 387.053 126H323.939C321.454 126 319.439 123.985 319.439 121.5C319.439 119.015 321.454 117 323.939 117H387.053C389.538 117 391.553 119.015 391.553 121.5Z" fill="black"/>
<path d="M500.004 117C503.109 117 505.373 119.948 504.395 122.895C503.771 124.775 501.991 126 500.01 126H422.348C418.499 126 416.195 121.826 418.58 118.806C419.48 117.666 420.885 117 422.338 117H500.004Z" fill="black"/>
<path d="M594.155 117C596.59 117 598.499 119.065 598.499 121.5C598.499 123.933 596.592 126 594.158 126H530.704C528.195 126 526.132 124.008 526.132 121.5C526.132 118.992 528.195 117 530.704 117H594.155Z" fill="black"/>
<path d="M824.235 121.5C824.235 123.985 822.221 126 819.735 126H756.876C754.391 126 752.376 123.985 752.376 121.5C752.376 119.015 754.391 117 756.876 117H819.735C822.221 117 824.235 119.015 824.235 121.5Z" fill="black"/>
<path d="M942.817 121.5C942.817 123.985 940.803 126 938.317 126H875.457C872.972 126 870.957 123.985 870.957 121.5C870.957 119.015 872.972 117 875.457 117H938.317C940.803 117 942.817 119.015 942.817 121.5Z" fill="black"/>
<path d="M1055.56 121.5C1055.56 123.985 1053.54 126 1051.06 126H987.944C985.459 126 983.444 123.985 983.444 121.5C983.444 119.015 985.459 117 987.944 117H1051.06C1053.54 117 1055.56 119.015 1055.56 121.5Z" fill="black"/>
<path d="M1202.58 121.5C1202.58 123.985 1200.56 126 1198.08 126H1135.22C1132.73 126 1130.72 123.985 1130.72 121.5C1130.72 119.015 1132.73 117 1135.22 117H1198.08C1200.56 117 1202.58 119.015 1202.58 121.5Z" fill="black"/>
<path d="M1340.04 121.5C1340.04 123.985 1338.03 126 1335.54 126H1272.43C1269.94 126 1267.93 123.985 1267.93 121.5C1267.93 119.015 1269.94 117 1272.43 117H1335.54C1338.03 117 1340.04 119.015 1340.04 121.5Z" fill="black"/>
<path d="M1448.03 117C1451.21 117 1453.5 120.062 1452.39 123.042C1451.72 124.849 1449.97 126 1448.04 126H1370.95C1367.13 126 1364.82 121.864 1367.15 118.836C1368.04 117.669 1369.46 117 1370.93 117H1448.03Z" fill="black"/>
<path d="M1685.75 121.5C1685.75 123.985 1683.74 126 1681.25 126H1500.92C1499.47 126 1498.09 125.384 1497.19 124.255C1494.77 121.229 1497.09 117 1500.96 117H1681.25C1683.74 117 1685.75 119.015 1685.75 121.5Z" fill="black"/>
<path d="M69.5911 104C72.4256 104 74.4228 106.786 73.7835 109.547C73.3296 111.508 71.6265 113 69.6145 113H5.29385C2.5973 113 0.457344 110.694 0.739627 108.013C0.983452 105.696 2.96131 104 5.29049 104H69.5911Z" fill="black"/>
<path d="M279.065 108.5C279.065 110.985 277.051 113 274.565 113H211.452C208.967 113 206.952 110.985 206.952 108.5C206.952 106.015 208.967 104 211.452 104H274.565C277.051 104 279.065 106.015 279.065 108.5Z" fill="black"/>
<path d="M391.553 108.5C391.553 110.985 389.538 113 387.053 113H323.939C321.454 113 319.439 110.985 319.439 108.5C319.439 106.015 321.454 104 323.939 104H387.053C389.538 104 391.553 106.015 391.553 108.5Z" fill="black"/>
<path d="M503.343 104C506.186 104 508.387 106.511 507.873 109.306C507.474 111.476 505.554 113 503.348 113H426.443C425.366 113 424.817 111.719 425.579 110.958C427.441 109.117 429.388 107.36 431.419 105.687C432.414 104.664 433.745 104 435.172 104H503.343Z" fill="black"/>
<path d="M595.388 104C598.163 104 600.169 106.66 599.649 109.386C599.255 111.447 597.496 113 595.398 113H531.339C528.655 113 526.519 110.713 526.781 108.042C527.01 105.713 528.993 104 531.334 104H595.388Z" fill="black"/>
<path d="M824.235 108.5C824.235 110.985 822.221 113 819.735 113H756.876C754.391 113 752.376 110.985 752.376 108.5C752.376 106.015 754.391 104 756.876 104H819.735C822.221 104 824.235 106.015 824.235 108.5Z" fill="black"/>
<path d="M942.817 108.5C942.817 110.985 940.803 113 938.317 113H875.457C872.972 113 870.957 110.985 870.957 108.5C870.957 106.015 872.972 104 875.457 104H938.317C940.803 104 942.817 106.015 942.817 108.5Z" fill="black"/>
<path d="M1055.56 108.5C1055.56 110.985 1053.54 113 1051.06 113H987.944C985.459 113 983.444 110.985 983.444 108.5C983.444 106.015 985.459 104 987.944 104H1051.06C1053.54 104 1055.56 106.015 1055.56 108.5Z" fill="black"/>
<path d="M1202.58 108.5C1202.58 110.985 1200.56 113 1198.08 113H1135.22C1132.73 113 1130.72 110.985 1130.72 108.5C1130.72 106.015 1132.73 104 1135.22 104H1198.08C1200.56 104 1202.58 106.015 1202.58 108.5Z" fill="black"/>
<path d="M1340.04 108.5C1340.04 110.985 1338.03 113 1335.54 113H1272.43C1269.94 113 1267.93 110.985 1267.93 108.5C1267.93 106.015 1269.94 104 1272.43 104H1335.54C1338.03 104 1340.04 106.015 1340.04 108.5Z" fill="black"/>
<path d="M1451.73 104C1454.6 104 1456.82 106.566 1456.25 109.384C1455.83 111.528 1453.92 113 1451.73 113H1374.93C1373.86 113 1373.3 111.72 1374.07 110.958C1375.93 109.117 1377.88 107.36 1379.91 105.687C1380.9 104.664 1382.23 104 1383.66 104H1451.73Z" fill="black"/>
<path d="M1685.75 108.5C1685.75 110.985 1683.74 113 1681.25 113H1492.73C1490.95 113 1489.3 112.026 1488.53 110.425C1487.06 107.389 1489.37 104 1492.74 104H1681.25C1683.74 104 1685.75 106.015 1685.75 108.5Z" fill="black"/>
<path d="M74.4191 91C77.6933 91 79.6424 94.7971 78.1361 97.7043C77.4141 99.098 76.0121 100 74.4425 100H7.38214C4.48448 100 2.2803 97.3759 2.8957 94.5443C3.35183 92.4456 5.2297 91 7.3774 91H74.4191Z" fill="black"/>
<path d="M279.065 95.5C279.065 97.9853 277.051 100 274.565 100H211.452C208.967 100 206.952 97.9853 206.952 95.5C206.952 93.0147 208.967 91 211.452 91H274.565C277.051 91 279.065 93.0147 279.065 95.5Z" fill="black"/>
<path d="M391.553 95.5C391.553 97.9853 389.538 100 387.053 100H323.939C321.454 100 319.439 97.9853 319.439 95.5C319.439 93.0147 321.454 91 323.939 91H387.053C389.538 91 391.553 93.0147 391.553 95.5Z" fill="black"/>
<path d="M504.881 91C507.491 91 509.61 93.1397 509.47 95.7458C509.34 98.1648 507.305 100 504.882 100H441.358C438.661 100 436.82 97.1867 437.333 94.5386C437.704 92.6279 439.278 91 441.224 91H504.881Z" fill="black"/>
<path d="M599.27 91C602.403 91 604.422 94.3989 603.229 97.2966C602.57 98.8981 601.036 100 599.304 100H533.332C530.448 100 528.248 97.3983 528.84 94.5758C529.284 92.4619 531.169 91 533.329 91H599.27Z" fill="black"/>
<path d="M824.235 95.5C824.235 97.9853 822.221 100 819.735 100H756.876C754.391 100 752.376 97.9853 752.376 95.5C752.376 93.0147 754.391 91 756.876 91H819.735C822.221 91 824.235 93.0147 824.235 95.5Z" fill="black"/>
<path d="M942.817 95.5C942.817 97.9853 940.803 100 938.317 100H875.457C872.972 100 870.957 97.9853 870.957 95.5C870.957 93.0147 872.972 91 875.457 91H938.317C940.803 91 942.817 93.0147 942.817 95.5Z" fill="black"/>
<path d="M1055.56 95.5C1055.56 97.9853 1053.54 100 1051.06 100H987.944C985.459 100 983.444 97.9853 983.444 95.5C983.444 93.0147 985.459 91 987.944 91H1051.06C1053.54 91 1055.56 93.0147 1055.56 95.5Z" fill="black"/>
<path d="M1202.58 95.5C1202.58 97.9853 1200.56 100 1198.08 100H1135.22C1132.73 100 1130.72 97.9853 1130.72 95.5C1130.72 93.0147 1132.73 91 1135.22 91H1198.08C1200.56 91 1202.58 93.0147 1202.58 95.5Z" fill="black"/>
<path d="M1340.04 95.5C1340.04 97.9853 1338.03 100 1335.54 100H1272.43C1269.94 100 1267.93 97.9853 1267.93 95.5C1267.93 93.0147 1269.94 91 1272.43 91H1335.54C1338.03 91 1340.04 93.0147 1340.04 95.5Z" fill="black"/>
<path d="M1453.36 91C1455.98 91 1458.1 93.1706 1457.95 95.7816C1457.82 98.198 1455.79 100 1453.37 100H1389.85C1387.15 100 1385.31 97.1867 1385.82 94.5385C1386.19 92.6279 1387.77 91 1389.71 91H1453.36Z" fill="black"/>
<path d="M1685.75 95.5C1685.75 97.9853 1683.74 100 1681.25 100H1487.75C1485.7 100 1483.87 98.6786 1483.3 96.7079C1482.46 93.7945 1484.73 91 1487.76 91H1681.25C1683.74 91 1685.75 93.0147 1685.75 95.5Z" fill="black"/>
<path d="M86.2669 78C89.1699 78 90.5568 81.7775 88.4922 83.8184C86.5155 85.7723 83.8994 87 81.1199 87H11.033C7.90858 87 5.65602 84.0005 6.67858 81.0481C7.31816 79.2015 9.07531 78 11.0296 78H86.2669Z" fill="black"/>
<path d="M279.065 82.5C279.065 84.9853 277.051 87 274.565 87H211.452C208.967 87 206.952 84.9853 206.952 82.5C206.952 80.0147 208.967 78 211.452 78H274.565C277.051 78 279.065 80.0147 279.065 82.5Z" fill="black"/>
<path d="M388.336 78C391.115 78 392.898 81.1475 392.206 83.8388C391.754 85.5946 390.269 87 388.456 87H324.322C321.67 87 319.53 84.7779 319.729 82.1329C319.908 79.7527 321.927 78 324.314 78H388.336Z" fill="black"/>
<path d="M504.754 78C507.142 78 509.161 79.7537 509.339 82.1344C509.537 84.7787 507.397 87 504.746 87H440.738C438.944 87 437.463 85.6348 436.99 83.9047C436.248 81.1943 438.043 78 440.853 78H504.754Z" fill="black"/>
<path d="M613.838 78C614.85 78 615.342 79.2608 614.623 79.9717C610.545 84.0033 605.341 87 599.606 87H536.876C533.767 87 531.517 84.0268 532.51 81.0809C533.139 79.2169 534.904 78 536.871 78H613.838Z" fill="black"/>
<path d="M824.235 82.5C824.235 84.9853 822.221 87 819.735 87H756.876C754.391 87 752.376 84.9853 752.376 82.5C752.376 80.0147 754.391 78 756.876 78H819.735C822.221 78 824.235 80.0147 824.235 82.5Z" fill="black"/>
<path d="M942.817 82.5C942.817 84.9853 940.803 87 938.317 87H875.457C872.972 87 870.957 84.9853 870.957 82.5C870.957 80.0147 872.972 78 875.457 78H938.317C940.803 78 942.817 80.0147 942.817 82.5Z" fill="black"/>
<path d="M1055.56 82.5C1055.56 84.9853 1053.54 87 1051.06 87H987.944C985.459 87 983.444 84.9853 983.444 82.5C983.444 80.0147 985.459 78 987.944 78H1051.06C1053.54 78 1055.56 80.0147 1055.56 82.5Z" fill="black"/>
<path d="M1199.14 78C1201.14 78 1202.58 79.8693 1202.58 81.8613C1202.58 84.6993 1200.28 87 1197.44 87H1135.86C1133.02 87 1130.72 84.6993 1130.72 81.8613C1130.72 79.8693 1132.16 78 1134.15 78H1199.14Z" fill="black"/>
<path d="M1336.83 78C1339.6 78 1341.39 81.1475 1340.7 83.8388C1340.24 85.5946 1338.76 87 1336.95 87H1272.81C1270.16 87 1268.02 84.7779 1268.22 82.1329C1268.4 79.7527 1270.42 78 1272.8 78H1336.83Z" fill="black"/>
<path d="M1453.24 78C1455.63 78 1457.65 79.7537 1457.83 82.1344C1458.03 84.7787 1455.89 87 1453.23 87H1389.23C1387.43 87 1385.95 85.6348 1385.48 83.9047C1384.74 81.1943 1386.53 78 1389.34 78H1453.24Z" fill="black"/>
<path d="M1685.75 82.5C1685.75 84.9853 1683.74 87 1681.25 87H1485.08C1482.77 87 1480.78 85.3088 1480.49 83.0169C1480.15 80.2951 1482.34 78 1485.08 78H1681.25C1683.74 78 1685.75 80.0147 1685.75 82.5Z" fill="black"/>
<path d="M127.75 65C123.025 65 118.43 65.8242 114.014 67.2887C104.626 70.4025 95.1897 74 85.2986 74H16.4905C13.1143 74 10.839 70.5661 12.3387 67.5413C13.1169 65.9716 14.7345 65 16.4865 65H127.75Z" fill="black"/>
<path d="M279.065 69.5C279.065 71.9853 277.051 74 274.565 74H211.452C208.967 74 206.952 71.9853 206.952 69.5C206.952 67.0147 208.967 65 211.452 65H274.565C277.051 65 279.065 67.0147 279.065 69.5Z" fill="black"/>
<path d="M502.812 65C504.957 65 506.843 66.4185 507.315 68.5105C507.959 71.3611 505.727 74 502.804 74H431.368C431.196 74 431.033 73.9301 430.911 73.8096C426.341 69.2917 420.923 67.0332 414.66 67.0332C408.228 67.0332 402.726 69.2918 398.155 73.8096C398.033 73.9301 397.87 74 397.699 74H326.273C323.348 74 321.115 71.3583 321.762 68.5064C322.237 66.4164 324.122 65 326.265 65H502.812Z" fill="black"/>
<path d="M620.267 65C622.787 65 624.263 72.1497 622.203 73.601C621.847 73.8525 621.409 74 620.973 74H542.207C538.848 74 536.573 70.5961 538.039 67.5741C538.809 65.9859 540.436 65 542.201 65H620.267Z" fill="black"/>
<path d="M818.614 65C821.811 65 824.485 67.4746 824.489 70.6719C824.489 70.7412 824.432 70.7979 824.362 70.7979C824.292 70.7981 824.235 70.8547 824.235 70.9238C824.235 72.6228 822.858 74 821.159 74H756.626C753.787 74 751.348 72.0408 749.329 70.0449C747.298 68.0369 744.927 67.0332 742.219 67.0332C740.06 67.0332 740.444 65 742.603 65H818.614Z" fill="black"/>
<path d="M952.594 65C954.757 65 955.137 67.0331 952.975 67.0332C950.266 67.0332 947.896 68.0369 945.864 70.0449C943.845 72.0408 941.406 74 938.567 74H874.41C872.503 74 870.957 72.454 870.957 70.5469C870.957 67.4221 873.57 65 876.695 65H952.594Z" fill="black"/>
<path d="M1055.56 69.5C1055.56 71.9853 1053.54 74 1051.06 74H987.944C985.459 74 983.444 71.9853 983.444 69.5C983.444 67.0147 985.459 65 987.944 65H1051.06C1053.54 65 1055.56 67.0147 1055.56 69.5Z" fill="black"/>
<path d="M1201.82 65C1204.36 65 1206.37 70.4245 1205.13 72.6393C1204.69 73.4322 1203.86 74 1202.95 74H1130.35C1129.44 74 1128.61 73.4322 1128.17 72.6393C1126.93 70.4246 1128.94 65 1131.48 65H1201.82Z" fill="black"/>
<path d="M1451.3 65C1453.45 65 1455.33 66.4185 1455.8 68.5105C1456.45 71.361 1454.22 74 1451.29 74H1379.86C1379.69 74 1379.52 73.9301 1379.4 73.8096C1374.83 69.2917 1369.41 67.0333 1363.15 67.0332C1356.72 67.0332 1351.22 69.2918 1346.64 73.8096C1346.52 73.9301 1346.36 74 1346.19 74H1274.76C1271.84 74 1269.6 71.3583 1270.25 68.5064C1270.73 66.4164 1272.61 65 1274.75 65H1451.3Z" fill="black"/>
<path d="M1552.44 67.3975C1552.44 70.1522 1550.89 74 1548.14 74H1481.39C1480.53 74 1479.82 73.3083 1479.82 72.4443C1479.82 68.3329 1483.15 65 1487.27 65H1550.05C1551.37 65 1552.44 66.0734 1552.44 67.3975Z" fill="black"/>
<path d="M1685.75 69.5C1685.75 71.9853 1683.74 74 1681.25 74H1615.95C1613.28 74 1611.57 69.9142 1612.42 67.3816C1612.86 66.0744 1614.01 65 1615.39 65H1681.25C1683.74 65 1685.75 67.0147 1685.75 69.5Z" fill="black"/>
<path d="M182.715 52C186.745 52 190.043 55.7148 187.696 58.9917C186.668 60.4275 184.947 61 183.181 61H24.0591C20.4083 61 18.1475 57.076 20.1839 54.0458C21.046 52.7629 22.5091 52 24.0548 52H182.715Z" fill="black"/>
<path d="M279.065 56.5C279.065 58.9853 277.051 61 274.565 61H211.452C208.967 61 206.952 58.9853 206.952 56.5C206.952 54.0147 208.967 52 211.452 52H274.565C277.051 52 279.065 54.0147 279.065 56.5Z" fill="black"/>
<path d="M498.723 52C500.604 52 502.321 53.099 503.03 54.8416C504.251 57.8422 501.954 61 498.714 61H330.382C327.139 61 324.841 57.837 326.068 54.8353C326.779 53.0961 328.495 52 330.374 52H498.723Z" fill="black"/>
<path d="M707.539 52C711.954 52 715.228 56.2818 712.157 59.4538C711.095 60.5507 709.581 61 708.055 61H549.625C545.993 61 543.73 57.1094 545.73 54.0773C546.588 52.7757 548.062 52 549.621 52H707.539Z" fill="black"/>
<path d="M818.498 52C820.697 52 822.625 53.4652 823.05 55.6226C823.607 58.4484 821.367 61 818.487 61H738.505C733.879 61 729.016 58.6074 729.016 53.9814C729.016 52.8871 729.903 52 730.997 52H818.498Z" fill="black"/>
<path d="M966.432 53.7305C966.431 58.5391 961.353 61 956.544 61H876.933C874.054 61 871.813 58.4542 872.367 55.6296C872.789 53.4694 874.719 52 876.921 52H964.701C965.657 52 966.432 52.7748 966.432 53.7305Z" fill="black"/>
<path d="M1055.56 56.5C1055.56 58.9853 1053.54 61 1051.06 61H987.944C985.459 61 983.444 58.9853 983.444 56.5C983.444 54.0147 985.459 52 987.944 52H1051.06C1053.54 52 1055.56 54.0147 1055.56 56.5Z" fill="black"/>
<path d="M1251.69 52C1256.11 52 1259.38 56.2818 1256.31 59.4538C1255.25 60.5507 1253.74 61 1252.21 61H1080.83C1079.31 61 1077.79 60.5507 1076.73 59.4538C1073.66 56.2816 1076.94 52 1081.35 52H1251.69Z" fill="black"/>
<path d="M1447.21 52C1449.09 52 1450.81 53.099 1451.52 54.8416C1452.74 57.8422 1450.44 61 1447.2 61H1278.87C1275.63 61 1273.33 57.837 1274.56 54.8353C1275.27 53.0961 1276.98 52 1278.86 52H1447.21Z" fill="black"/>
<path d="M1552.44 56.5C1552.44 58.9853 1550.43 61 1547.94 61H1484.32C1481.84 61 1479.82 58.9853 1479.82 56.5C1479.82 54.0147 1481.84 52 1484.32 52H1547.94C1550.43 52 1552.44 54.0147 1552.44 56.5Z" fill="black"/>
<path d="M1685.75 56.5C1685.75 58.9853 1683.74 61 1681.25 61H1617.63C1615.14 61 1613.13 58.9853 1613.13 56.5C1613.13 54.0147 1615.14 52 1617.63 52H1681.25C1683.74 52 1685.75 54.0147 1685.75 56.5Z" fill="black"/>
<path d="M190.188 43.5C190.188 45.9853 188.173 48 185.688 48H34.1397C30.1945 48 27.9964 43.5407 30.6094 40.5849C31.4975 39.5803 32.7963 39 34.1372 39H185.688C188.173 39 190.188 41.0147 190.188 43.5Z" fill="black"/>
<path d="M279.065 43.5C279.065 45.9853 277.051 48 274.565 48H211.452C208.967 48 206.952 45.9853 206.952 43.5C206.952 41.0147 208.967 39 211.452 39H274.565C277.051 39 279.065 41.0147 279.065 43.5Z" fill="black"/>
<path d="M492.022 39C493.629 39 495.148 39.8122 496.004 41.1723C497.921 44.2202 495.614 48 492.013 48H337.115C333.509 48 331.202 44.2125 333.129 41.1648C333.986 39.8092 335.503 39 337.107 39H492.022Z" fill="black"/>
<path d="M716.319 43.5C716.319 45.9853 714.305 48 711.819 48H559.529C555.604 48 553.4 43.5765 555.974 40.6133C556.861 39.5912 558.171 39 559.525 39H711.819C714.305 39 716.319 41.0147 716.319 43.5Z" fill="black"/>
<path d="M814.494 39C816.364 39 818.081 40.0681 818.813 41.7889C820.097 44.8088 817.765 48 814.483 48H733.516C731.03 48 729.016 45.9853 729.016 43.5C729.016 41.0147 731.03 39 733.516 39H814.494Z" fill="black"/>
<path d="M966.432 43.5C966.432 45.9853 964.417 48 961.932 48H880.925C877.645 48 875.312 44.8133 876.593 41.7939C877.323 40.0714 879.043 39 880.914 39H961.932C964.417 39 966.432 41.0147 966.432 43.5Z" fill="black"/>
<path d="M1055.56 43.5C1055.56 45.9853 1053.54 48 1051.06 48H987.944C985.459 48 983.444 45.9853 983.444 43.5C983.444 41.0147 985.459 39 987.944 39H1051.06C1053.54 39 1055.56 41.0147 1055.56 43.5Z" fill="black"/>
<path d="M1260.47 43.5C1260.47 45.9853 1258.46 48 1255.97 48H1077.07C1074.59 48 1072.57 45.9853 1072.57 43.5C1072.57 41.0147 1074.59 39 1077.07 39H1255.97C1258.46 39 1260.47 41.0147 1260.47 43.5Z" fill="black"/>
<path d="M1440.51 39C1442.12 39 1443.64 39.8122 1444.49 41.1723C1446.41 44.2202 1444.1 48 1440.5 48H1285.6C1282 48 1279.69 44.2125 1281.62 41.1648C1282.48 39.8092 1283.99 39 1285.6 39H1440.51Z" fill="black"/>
<path d="M1552.44 43.5C1552.44 45.9853 1550.43 48 1547.94 48H1484.32C1481.84 48 1479.82 45.9853 1479.82 43.5C1479.82 41.0147 1481.84 39 1484.32 39H1547.94C1550.43 39 1552.44 41.0147 1552.44 43.5Z" fill="black"/>
<path d="M1685.75 43.5C1685.75 45.9853 1683.74 48 1681.25 48H1617.63C1615.14 48 1613.13 45.9853 1613.13 43.5C1613.13 41.0147 1615.14 39 1617.63 39H1681.25C1683.74 39 1685.75 41.0147 1685.75 43.5Z" fill="black"/>
<path d="M190.188 30.5C190.188 32.9853 188.173 35 185.688 35H37.773C37.0485 35 36.6839 34.1275 37.1992 33.6182C42.3884 28.4887 49.5394 26 56.8359 26H185.688C188.173 26 190.188 28.0147 190.188 30.5Z" fill="black"/>
<path d="M279.065 30.5C279.065 32.9853 277.051 35 274.565 35H211.452C208.967 35 206.952 32.9853 206.952 30.5C206.952 28.0147 208.967 26 211.452 26H274.565C277.051 26 279.065 28.0147 279.065 30.5Z" fill="black"/>
<path d="M482.067 26C483.401 26 484.704 26.5698 485.602 27.556C488.294 30.5138 486.06 35 482.06 35H347.116C343.111 35 340.878 30.5041 343.581 27.5485C344.479 26.5671 345.779 26 347.109 26H482.067Z" fill="black"/>
<path d="M716.319 30.5C716.319 32.9853 714.305 35 711.819 35H564.261C563.088 35 562.497 33.5959 563.331 32.7715C567.916 28.239 574.22 26 580.668 26H711.819C714.305 26 716.319 28.0147 716.319 30.5Z" fill="black"/>
<path d="M807.098 26C808.621 26 810.084 26.7238 810.977 27.9582C813.178 31.0039 810.844 35 807.086 35H733.516C731.03 35 729.016 32.9853 729.016 30.5C729.016 28.0147 731.03 26 733.516 26H807.098Z" fill="black"/>
<path d="M966.432 30.5C966.432 32.9853 964.417 35 961.932 35H888.294C884.543 35 882.21 31.0139 884.4 27.968C885.291 26.7288 886.758 26 888.284 26H961.932C964.417 26 966.432 28.0147 966.432 30.5Z" fill="black"/>
<path d="M1055.56 30.5C1055.56 32.9853 1053.54 35 1051.06 35H987.944C985.459 35 983.444 32.9853 983.444 30.5C983.444 28.0147 985.459 26 987.944 26H1051.06C1053.54 26 1055.56 28.0147 1055.56 30.5Z" fill="black"/>
<path d="M1260.47 30.5C1260.47 32.9853 1258.46 35 1255.97 35H1077.07C1074.59 35 1072.57 32.9853 1072.57 30.5C1072.57 28.0147 1074.59 26 1077.07 26H1255.97C1258.46 26 1260.47 28.0147 1260.47 30.5Z" fill="black"/>
<path d="M1430.56 26C1431.89 26 1433.19 26.5699 1434.09 27.556C1436.78 30.5138 1434.55 35 1430.55 35H1295.61C1291.6 35 1289.37 30.5041 1292.07 27.5485C1292.97 26.5671 1294.27 26 1295.6 26H1430.56Z" fill="black"/>
<path d="M1552.44 30.5C1552.44 32.9853 1550.43 35 1547.94 35H1484.32C1481.84 35 1479.82 32.9853 1479.82 30.5C1479.82 28.0147 1481.84 26 1484.32 26H1547.94C1550.43 26 1552.44 28.0147 1552.44 30.5Z" fill="black"/>
<path d="M1685.75 30.5C1685.75 32.9853 1683.74 35 1681.25 35H1617.63C1615.14 35 1613.13 32.9853 1613.13 30.5C1613.13 28.0147 1615.14 26 1617.63 26H1681.25C1683.74 26 1685.75 28.0147 1685.75 30.5Z" fill="black"/>
<path d="M190.188 17.5C190.188 19.9853 188.173 22 185.688 22H65.4284C60.6094 22 58.7381 16.1174 62.8891 13.6697C63.6481 13.2221 64.5028 13 65.3839 13H185.688C188.173 13 190.188 15.0147 190.188 17.5Z" fill="black"/>
<path d="M279.065 17.5C279.065 19.9853 277.051 22 274.565 22H211.452C208.967 22 206.952 19.9853 206.952 17.5C206.952 15.0147 208.967 13 211.452 13H274.565C277.051 13 279.065 15.0147 279.065 17.5Z" fill="black"/>
<path d="M467.707 13C468.751 13 469.747 13.3064 470.586 13.9272C474.215 16.614 472.174 22 467.659 22H361.579C357.06 22 355.022 16.6053 358.659 13.9224C359.496 13.3047 360.49 13 361.53 13H467.707Z" fill="black"/>
<path d="M716.319 17.5C716.319 19.9853 714.305 22 711.819 22H590.14C585.37 22 583.481 16.1813 587.555 13.7011C588.325 13.2328 589.197 13 590.098 13H711.819C714.305 13 716.319 15.0147 716.319 17.5Z" fill="black"/>
<path d="M789.576 13C794.341 13 799.02 14.6039 802.398 17.9629C803.928 19.4831 802.812 22 800.655 22H733.516C731.03 22 729.016 19.9853 729.016 17.5C729.016 15.0147 731.03 13 733.516 13H789.576Z" fill="black"/>
<path d="M966.432 17.5C966.432 19.9853 964.417 22 961.932 22H894.854C892.631 22 891.477 19.4089 893.049 17.8369C896.358 14.5656 900.927 13 905.58 13H961.932C964.417 13 966.432 15.0147 966.432 17.5Z" fill="black"/>
<path d="M1055.56 17.5C1055.56 19.9853 1053.54 22 1051.06 22H987.944C985.459 22 983.444 19.9853 983.444 17.5C983.444 15.0147 985.459 13 987.944 13H1051.06C1053.54 13 1055.56 15.0147 1055.56 17.5Z" fill="black"/>
<path d="M1260.47 17.5C1260.47 19.9853 1258.46 22 1255.97 22H1077.07C1074.59 22 1072.57 19.9853 1072.57 17.5C1072.57 15.0147 1074.59 13 1077.07 13H1255.97C1258.46 13 1260.47 15.0147 1260.47 17.5Z" fill="black"/>
<path d="M1416.2 13C1417.24 13 1418.24 13.3064 1419.07 13.9273C1422.7 16.614 1420.66 22 1416.15 22H1310.07C1305.55 22 1303.51 16.6054 1307.15 13.9224C1307.99 13.3047 1308.98 13 1310.02 13H1416.2Z" fill="black"/>
<path d="M1552.44 17.5C1552.44 19.9853 1550.43 22 1547.94 22H1484.32C1481.84 22 1479.82 19.9853 1479.82 17.5C1479.82 15.0147 1481.84 13 1484.32 13H1547.94C1550.43 13 1552.44 15.0147 1552.44 17.5Z" fill="black"/>
<path d="M1685.75 17.5C1685.75 19.9853 1683.74 22 1681.25 22H1617.63C1615.14 22 1613.13 19.9853 1613.13 17.5C1613.13 15.0147 1615.14 13 1617.63 13H1681.25C1683.74 13 1685.75 15.0147 1685.75 17.5Z" fill="black"/>
<path d="M182.043 0C183.594 0 185.129 0.465669 186.19 1.59675C189.178 4.78318 185.915 9 181.547 9H98.406C91.8849 9 90.4801 1.61226 96.8356 0.151837C97.2753 0.0507922 97.7325 0 98.1837 0H182.043Z" fill="black"/>
<path d="M271.655 0C273.363 0 275.041 0.581439 276.073 1.94202C278.539 5.19152 275.351 9 271.272 9H214.745C210.667 9 207.479 5.19154 209.944 1.94204C210.976 0.581447 212.655 0 214.363 0H271.655Z" fill="black"/>
<path d="M442.067 0C442.647 0 443.226 0.0839661 443.779 0.256217C449.531 2.04637 447.875 9 441.851 9H387.449C381.424 9 379.771 2.04314 385.524 0.255303C386.077 0.0836089 386.654 0 387.233 0H442.067Z" fill="black"/>
<path d="M708.908 0C710.616 0 712.294 0.581427 713.326 1.94198C715.792 5.19148 712.604 9 708.525 9H621.027C614.768 9 613.313 1.77405 619.368 0.188267C619.847 0.0627044 620.346 0 620.842 0H708.908Z" fill="black"/>
<path d="M772.992 0C773.646 0 774.293 0.104552 774.909 0.324109C780.397 2.28145 778.574 9 772.747 9H736.809C732.73 9 729.542 5.19151 732.008 1.94201C733.04 0.581436 734.718 0 736.426 0H772.992Z" fill="black"/>
<path d="M959.021 0C960.729 0 962.407 0.581441 963.44 1.94202C965.905 5.19152 962.717 9 958.638 9H922.63C916.799 9 914.979 2.27723 920.473 0.322852C921.087 0.104237 921.733 0 922.385 0H959.021Z" fill="black"/>
<path d="M1048.15 0C1049.86 0 1051.53 0.581416 1052.57 1.94195C1055.03 5.19145 1051.84 9 1047.76 9H991.239C987.16 9 983.972 5.1915 986.437 1.942C987.47 0.581433 989.148 0 990.856 0H1048.15Z" fill="black"/>
<path d="M1253.06 0C1254.77 0 1256.45 0.581422 1257.48 1.94197C1259.95 5.19147 1256.76 9 1252.68 9H1080.36C1076.29 9 1073.1 5.19156 1075.56 1.94206C1076.6 0.581452 1078.27 0 1079.98 0H1253.06Z" fill="black"/>
<path d="M1390.56 0C1391.14 0 1391.71 0.0839677 1392.27 0.256222C1398.02 2.04639 1396.36 9 1390.34 9H1335.94C1329.91 9 1328.26 2.0431 1334.01 0.255296C1334.57 0.0836063 1335.14 0 1335.72 0H1390.56Z" fill="black"/>
<path d="M1545.03 0C1546.74 0 1548.42 0.581435 1549.45 1.942C1551.92 5.19151 1548.73 9 1544.65 9H1487.61C1483.54 9 1480.35 5.19156 1482.81 1.94206C1483.85 0.581452 1485.52 0 1487.23 0H1545.03Z" fill="black"/>
<path d="M1678.34 0C1680.05 0 1681.73 0.581416 1682.76 1.94195C1685.22 5.19145 1682.04 9 1677.96 9H1620.92C1616.85 9 1613.66 5.19147 1616.12 1.94197C1617.16 0.581423 1618.83 0 1620.54 0H1678.34Z" fill="black"/>
</svg>
